<?xml version="1.0" encoding="UTF-8" standalone="no"?>
<!DOCTYPE svg PUBLIC "-//W3C//DTD SVG 1.1//EN" "http://www.w3.org/Graphics/SVG/1.1/DTD/svg11.dtd">
<svg width="100%" height="100%" viewBox="0 0 29 29" version="1.1" xmlns="http://www.w3.org/2000/svg" xmlns:xlink="http://www.w3.org/1999/xlink" xml:space="preserve" xmlns:serif="http://www.serif.com/" style="fill-rule:evenodd;clip-rule:evenodd;stroke-linejoin:round;stroke-miterlimit:2;">
    <g transform="matrix(1,0,0,1,-1658.848388,-10757.768742)">
        <g transform="matrix(0.243595,0,0,0.237715,1181.265112,10244.656535)">
            <g transform="matrix(1,0,0,1,1010.412983,-579.653541)">
                <path d="M1022.792,2844.414C1028.241,2844.414 1033.046,2843.204 1037.207,2840.782C1041.369,2838.361 1044.963,2835.258 1047.99,2831.475C1051.017,2827.691 1053.514,2823.908 1055.481,2820.124L1067.059,2828.297C1063.881,2834.502 1059.984,2839.988 1055.368,2844.755C1050.752,2849.522 1045.19,2853.23 1038.683,2855.878C1032.175,2858.527 1024.457,2859.851 1015.528,2859.851C1002.967,2859.851 991.768,2857.391 981.931,2852.473C972.094,2847.554 964.338,2840.555 958.663,2831.475C952.988,2822.394 950.15,2811.574 950.15,2799.013C950.15,2786.452 952.912,2775.631 958.436,2766.551C963.96,2757.47 971.791,2750.471 981.931,2745.552C992.071,2740.634 1003.951,2738.175 1017.571,2738.175C1025.743,2738.175 1032.97,2738.931 1039.25,2740.445C1045.531,2741.958 1050.79,2743.698 1055.027,2745.666C1059.265,2747.633 1062.292,2749.449 1064.108,2751.114L1064.108,2780.625L1033.235,2780.625L1033.235,2750.887C1034.899,2751.19 1036.262,2751.757 1037.321,2752.59C1038.38,2753.422 1039.175,2754.443 1039.704,2755.654C1040.234,2756.865 1040.461,2758.076 1040.385,2759.286C1040.31,2760.497 1039.969,2761.632 1039.364,2762.691C1037.548,2759.816 1035.013,2757.432 1031.759,2755.541C1028.505,2753.649 1024.533,2752.703 1019.841,2752.703C1014.09,2752.703 1009.172,2754.481 1005.086,2758.038C1001,2761.594 997.897,2766.778 995.778,2773.588C993.66,2780.398 992.6,2788.873 992.6,2799.013C992.6,2806.428 993.281,2812.974 994.643,2818.649C996.005,2824.324 997.973,2829.091 1000.546,2832.95C1003.118,2836.809 1006.259,2839.685 1009.966,2841.577C1013.674,2843.468 1017.95,2844.414 1022.792,2844.414Z" style="fill:rgb(0,231,255);fill-rule:nonzero;"/>
            </g>
        </g>
    </g>
</svg>
