<?xml version="1.0" encoding="UTF-8" standalone="no"?>
<!DOCTYPE svg PUBLIC "-//W3C//DTD SVG 1.1//EN" "http://www.w3.org/Graphics/SVG/1.1/DTD/svg11.dtd">
<svg width="100%" height="100%" viewBox="0 0 309 221" version="1.1" xmlns="http://www.w3.org/2000/svg" xmlns:xlink="http://www.w3.org/1999/xlink" xml:space="preserve" xmlns:serif="http://www.serif.com/" style="fill-rule:evenodd;clip-rule:evenodd;stroke-linejoin:round;stroke-miterlimit:2;">
    <g transform="matrix(1,0,0,1,-867.570776,-4179.874676)">
        <g transform="matrix(0.547912,0,0,0.547912,378.014571,1815.65884)">
            <g id="Cropcare-black-main" serif:id="Cropcare black main" transform="matrix(0.794069,0,0,0.794069,190.053053,855.283151)">
                <g transform="matrix(1,0,0,1,-0,-705.707582)">
                    <rect x="885.87" y="5062.604" width="708.575" height="507.224" style="fill:none;"/>
                </g>
                <g transform="matrix(0.462852,0,0,0.462852,666.147959,2021.15418)">
                    <g transform="matrix(1,0,0,1,0,0.094488)">
                        <path d="M1310.832,5361.496C1321.078,5420.033 1314.894,5458.286 1301.465,5484.237C1289.653,5507.063 1272.353,5519.137 1258.748,5527.37C1252.861,5530.932 1246.37,5535.731 1240.157,5541.841C1233.944,5535.731 1227.454,5530.932 1221.567,5527.37C1207.962,5519.137 1190.662,5507.063 1178.85,5484.237C1165.421,5458.286 1159.237,5420.033 1169.483,5361.496C1207.987,5334.757 1240.157,5326.878 1240.157,5326.878C1240.157,5326.878 1272.328,5334.757 1310.832,5361.496Z" style="fill:white;"/>
                    </g>
                    <g transform="matrix(1,0,0,1,95.304886,-591.59678)">
                        <path d="M1144.853,6168.496C1152.315,6153.16 1164.378,6142.845 1174.228,6136.885C1214.57,6112.474 1280.864,6058.183 1210.107,5852.971C1210.107,5852.971 1339.954,5927.342 1349.278,6111.318C1355.526,6234.601 1210.713,6307.016 1179.875,6307.702C1164.149,6308.052 1152.708,6306.995 1144.853,6301.35C1136.997,6306.995 1125.556,6308.052 1109.83,6307.702C1078.992,6307.016 934.179,6234.601 940.427,6111.318C949.751,5927.342 1079.598,5852.971 1079.598,5852.971C1008.841,6058.183 1075.135,6112.474 1115.477,6136.885C1125.327,6142.845 1137.39,6153.16 1144.853,6168.496Z" style="fill:white;"/>
                    </g>
                </g>
                <g transform="matrix(0.559886,0,0,0.546371,424.053081,3203.272166)">
                    <g transform="matrix(227.007711,0,0,227.007711,1971.230601,2857.580668)">
                    </g>
                    <text x="943.113px" y="2857.581px" style="font-family:'RobotoSerif72pt-Bold', 'Roboto Serif 72pt';font-weight:700;font-size:227.008px;fill:white;">c<tspan x="1073.188px 1174.661px 1320.627px 1473.63px 1603.705px 1736.732px 1838.204px " y="2857.581px 2857.581px 2857.581px 2857.581px 2857.581px 2857.581px 2857.581px ">ropcare</tspan></text>
                </g>
            </g>
        </g>
    </g>
</svg>
